M48
; DRILL file KiCad 10.0.1 date 2026-05-20T09:10:33
; FORMAT={-:-/ absolute / metric / decimal}
; #@! TF.CreationDate,2026-05-20T09:10:33+01:00
; #@! TF.GenerationSoftware,Kicad,Pcbnew,10.0.1
; #@! TF.FileFunction,MixedPlating,1,2
FMAT,2
METRIC
; #@! TA.AperFunction,Plated,PTH,ViaDrill
T1C0.350
; #@! TA.AperFunction,Plated,PTH,ComponentDrill
T2C1.000
; #@! TA.AperFunction,Plated,PTH,ComponentDrill
T3C1.016
; #@! TA.AperFunction,Plated,PTH,ComponentDrill
T4C1.118
; #@! TA.AperFunction,NonPlated,NPTH,ComponentDrill
T5C0.203
; #@! TA.AperFunction,NonPlated,NPTH,ComponentDrill
T6C2.000
%
G90
G05
T1
X150.774Y-118.003
T2
X141.681Y-91.029
X141.681Y-116.429
X144.221Y-91.029
X144.221Y-116.429
X146.761Y-91.029
X146.761Y-116.429
X149.301Y-91.029
X149.301Y-116.429
X151.841Y-91.029
X151.841Y-116.429
X154.381Y-91.029
X154.381Y-116.429
X156.921Y-91.029
X156.921Y-116.429
X159.461Y-91.029
X159.461Y-116.429
X162.001Y-91.029
X162.001Y-116.429
X164.541Y-91.029
X164.541Y-116.429
X167.081Y-91.029
X167.081Y-116.429
X169.621Y-91.029
X169.621Y-116.429
X172.161Y-91.029
X172.161Y-116.429
X174.701Y-91.029
X174.701Y-116.429
X177.241Y-91.029
X177.241Y-116.429
T3
X113.741Y-99.919
X113.741Y-102.459
X113.741Y-104.999
X113.741Y-107.539
X113.741Y-110.079
X113.741Y-112.619
X113.741Y-115.159
X113.741Y-117.699
X117.551Y-106.269
X117.551Y-108.809
X117.551Y-111.349
X120.091Y-92.299
X122.631Y-108.809
X122.631Y-111.349
X122.631Y-113.889
X122.631Y-116.429
X126.441Y-108.809
X126.441Y-111.349
X126.441Y-113.889
X126.441Y-116.429
X127.711Y-92.299
T4
X117.551Y-113.889
X117.551Y-116.429
T5
X188.671Y-130.399
T6
X111.201Y-120.039
X111.401Y-89.859
X185.631Y-89.959
X185.631Y-119.839
M30
