M48
; DRILL file KiCad 10.0.1 date 2026-05-20T15:15:31
; FORMAT={-:-/ absolute / metric / decimal}
; #@! TF.CreationDate,2026-05-20T15:15:31+01:00
; #@! TF.GenerationSoftware,Kicad,Pcbnew,10.0.1
; #@! TF.FileFunction,MixedPlating,1,2
FMAT,2
METRIC
; #@! TA.AperFunction,Plated,PTH,ViaDrill
T1C0.300
; #@! TA.AperFunction,Plated,PTH,ComponentDrill
T2C0.700
; #@! TA.AperFunction,Plated,PTH,ComponentDrill
T3C0.800
; #@! TA.AperFunction,Plated,PTH,ComponentDrill
T4C1.000
; #@! TA.AperFunction,NonPlated,NPTH,ComponentDrill
T5C2.100
%
G90
G05
T1
X128.2Y-145.895
X134.5Y-105.186
X137.02Y-111.008
X141.558Y-131.989
T2
X120.6Y-135.5
X120.6Y-150.5
X120.8Y-130.0
X120.8Y-144.0
X124.3Y-135.5
X124.3Y-150.5
X124.5Y-130.0
X124.5Y-144.0
X128.0Y-135.5
X128.0Y-150.5
X128.2Y-130.0
X128.2Y-144.0
X131.7Y-135.5
X131.7Y-150.5
X131.9Y-130.0
X131.9Y-144.0
X135.3Y-150.5
X135.4Y-135.5
X135.6Y-130.0
X135.6Y-144.0
X139.0Y-150.5
X139.3Y-130.0
X139.3Y-135.5
X139.3Y-144.0
X143.0Y-130.0
X143.0Y-135.5
X143.0Y-144.0
X145.575Y-150.575
X147.475Y-150.575
T3
X148.0Y-130.0
X148.0Y-132.0
X148.0Y-134.0
X148.0Y-136.0
X148.0Y-138.0
X148.0Y-140.0
X148.0Y-142.0
X148.0Y-144.0
T4
X121.425Y-83.0
X121.425Y-85.54
X121.425Y-88.08
X121.425Y-90.62
X121.425Y-93.16
X121.425Y-95.7
X121.425Y-98.24
X121.425Y-100.78
X121.425Y-103.32
X121.425Y-105.86
X121.425Y-108.4
X121.425Y-110.94
X121.425Y-113.48
X121.425Y-116.02
X121.425Y-118.56
X146.825Y-83.0
X146.825Y-85.54
X146.825Y-88.08
X146.825Y-90.62
X146.825Y-93.16
X146.825Y-95.7
X146.825Y-98.24
X146.825Y-100.78
X146.825Y-103.32
X146.825Y-105.86
X146.825Y-108.4
X146.825Y-110.94
X146.825Y-113.48
X146.825Y-116.02
X146.825Y-118.56
T5
X113.5Y-73.0
X113.5Y-151.0
X155.0Y-73.0
X155.0Y-151.0
M30
